<svg xmlns="http://www.w3.org/2000/svg" height="20" viewBox="0 -960 960 960" width="20"><path d="m756.5-192.5-234.766-235q-29.734 24-65.526 36.25Q420.416-379 387.193-379q-82.397 0-139.545-57.314-57.148-57.315-57.148-139 0-81.686 57.041-139.186 57.042-57.5 139-57.5Q468.5-772 526-714.609t57.5 139.223q0 36.802-13.5 72.594-13.5 35.792-35 62.505L770-206l-13.5 13.5ZM387-396.5q75.5 0 127.25-51.559t51.75-127.5Q566-651.5 514.25-703t-127.5-51.5q-75.75 0-127.25 51.559t-51.5 127.5Q208-499.5 259.542-448 311.083-396.5 387-396.5Z"/></svg>