<svg xmlns="http://www.w3.org/2000/svg" height="24" viewBox="0 -960 960 960" width="24"><path d="M480.159-502Q395-502 336.5-561 278-620 278-704.5T336.341-847q58.34-58 143.5-58Q565-905 623.5-847.112 682-789.225 682-704q0 84-58.341 143-58.34 59-143.5 59ZM114-86v-159q0-46.774 23.789-84.467Q161.578-367.161 201-387q66-34 136.174-51t142.541-17Q554-455 624-438t135 50q39.422 19.693 63.211 57.111Q846-293.472 846-245.055V-86H114Zm136-136h460v-18q0-10.029-4.875-17.801Q700.25-265.572 692-269q-48-24-102-37t-110.5-13q-54.5 0-110 13T268-269q-8.25 2.428-13.125 10.699Q250-250.029 250-240v18Zm229.965-416Q507-638 526.5-657.465q19.5-19.464 19.5-46.5Q546-731 526.535-750.5q-19.464-19.5-46.5-19.5Q453-770 433.5-750.319 414-730.638 414-704q0 27.05 19.465 46.525Q452.929-638 479.965-638Zm.035-66Zm0 482Z"/></svg>