<?xml version="1.0" encoding="UTF-8"?>
<svg xmlns="http://www.w3.org/2000/svg" version="1.1" width="400" height="400" viewBox="0 0 400 400"><rect x="0" y="0" width="400" height="400" fill="#ffffff"/><g transform="scale(16)"><g transform="translate(0,0)"><path fill-rule="evenodd" d="M8 0L8 1L9 1L9 2L8 2L8 5L9 5L9 6L8 6L8 7L9 7L9 8L8 8L8 9L7 9L7 8L6 8L6 9L5 9L5 10L4 10L4 8L0 8L0 12L1 12L1 11L2 11L2 13L1 13L1 15L0 15L0 16L1 16L1 15L3 15L3 16L2 16L2 17L3 17L3 16L4 16L4 17L7 17L7 16L9 16L9 17L8 17L8 18L10 18L10 16L11 16L11 18L13 18L13 19L11 19L11 20L10 20L10 21L11 21L11 24L12 24L12 23L13 23L13 25L15 25L15 23L13 23L13 22L12 22L12 21L11 21L11 20L13 20L13 19L15 19L15 20L14 20L14 22L16 22L16 23L17 23L17 24L18 24L18 25L25 25L25 24L23 24L23 23L24 23L24 22L25 22L25 15L24 15L24 14L25 14L25 12L23 12L23 11L20 11L20 9L23 9L23 10L24 10L24 9L25 9L25 8L24 8L24 9L23 9L23 8L20 8L20 9L19 9L19 11L18 11L18 10L17 10L17 9L18 9L18 8L17 8L17 5L16 5L16 4L17 4L17 2L15 2L15 0ZM13 1L13 2L12 2L12 3L11 3L11 2L9 2L9 3L10 3L10 6L9 6L9 7L10 7L10 8L9 8L9 9L10 9L10 10L9 10L9 11L8 11L8 12L10 12L10 13L9 13L9 14L8 14L8 15L13 15L13 16L16 16L16 15L19 15L19 14L15 14L15 11L16 11L16 9L17 9L17 8L16 8L16 5L15 5L15 4L16 4L16 3L15 3L15 2L14 2L14 1ZM13 2L13 4L14 4L14 2ZM12 5L12 8L11 8L11 12L12 12L12 11L13 11L13 13L12 13L12 14L13 14L13 15L14 15L14 14L13 14L13 13L14 13L14 11L15 11L15 9L14 9L14 11L13 11L13 9L12 9L12 8L13 8L13 6L14 6L14 8L15 8L15 6L14 6L14 5ZM10 6L10 7L11 7L11 6ZM6 9L6 10L7 10L7 9ZM2 10L2 11L3 11L3 12L4 12L4 10ZM5 11L5 12L7 12L7 11ZM19 11L19 13L20 13L20 11ZM21 12L21 14L20 14L20 15L22 15L22 16L24 16L24 15L22 15L22 14L24 14L24 13L22 13L22 12ZM5 13L5 15L4 15L4 14L3 14L3 15L4 15L4 16L5 16L5 15L6 15L6 16L7 16L7 15L6 15L6 14L7 14L7 13ZM10 13L10 14L11 14L11 13ZM13 17L13 18L15 18L15 19L16 19L16 17ZM17 17L17 20L20 20L20 17ZM21 17L21 18L24 18L24 17ZM18 18L18 19L19 19L19 18ZM21 19L21 22L22 22L22 21L23 21L23 19ZM15 20L15 21L16 21L16 22L17 22L17 21L16 21L16 20ZM8 21L8 25L9 25L9 24L10 24L10 23L9 23L9 21ZM19 21L19 22L20 22L20 21ZM19 23L19 24L20 24L20 23ZM21 23L21 24L22 24L22 23ZM0 0L0 7L7 7L7 0ZM1 1L1 6L6 6L6 1ZM2 2L2 5L5 5L5 2ZM18 0L18 7L25 7L25 0ZM19 1L19 6L24 6L24 1ZM20 2L20 5L23 5L23 2ZM0 18L0 25L7 25L7 18ZM1 19L1 24L6 24L6 19ZM2 20L2 23L5 23L5 20Z" fill="#000000"/></g></g></svg>
