<?xml version="1.0" encoding="UTF-8"?>
<svg xmlns="http://www.w3.org/2000/svg" version="1.1" width="200" height="200" viewBox="0 0 200 200"><rect x="0" y="0" width="200" height="200" fill="#ffffff"/><g transform="scale(8)"><g transform="translate(0,0)"><path fill-rule="evenodd" d="M8 0L8 1L9 1L9 0ZM10 0L10 2L11 2L11 3L12 3L12 4L14 4L14 7L15 7L15 8L14 8L14 9L13 9L13 10L12 10L12 8L13 8L13 5L12 5L12 7L11 7L11 6L10 6L10 3L9 3L9 2L8 2L8 5L9 5L9 6L8 6L8 7L9 7L9 8L8 8L8 9L7 9L7 8L6 8L6 9L7 9L7 10L6 10L6 11L7 11L7 12L6 12L6 13L5 13L5 12L4 12L4 11L5 11L5 9L4 9L4 8L0 8L0 9L1 9L1 10L0 10L0 11L1 11L1 15L0 15L0 16L1 16L1 15L4 15L4 16L6 16L6 17L7 17L7 16L8 16L8 18L9 18L9 21L8 21L8 25L10 25L10 24L9 24L9 21L11 21L11 23L12 23L12 25L15 25L15 24L16 24L16 23L15 23L15 24L14 24L14 23L13 23L13 22L14 22L14 21L15 21L15 20L14 20L14 21L12 21L12 20L13 20L13 19L15 19L15 18L16 18L16 22L18 22L18 23L19 23L19 24L18 24L18 25L19 25L19 24L20 24L20 25L21 25L21 22L22 22L22 25L25 25L25 24L23 24L23 23L24 23L24 22L25 22L25 16L24 16L24 15L23 15L23 16L22 16L22 17L21 17L21 16L19 16L19 15L21 15L21 12L22 12L22 13L23 13L23 14L25 14L25 11L24 11L24 13L23 13L23 11L22 11L22 10L20 10L20 9L23 9L23 10L24 10L24 9L25 9L25 8L24 8L24 9L23 9L23 8L20 8L20 9L19 9L19 10L20 10L20 11L19 11L19 12L16 12L16 15L18 15L18 16L15 16L15 11L14 11L14 9L17 9L17 10L18 10L18 8L17 8L17 6L16 6L16 7L15 7L15 2L14 2L14 0L13 0L13 3L12 3L12 0ZM16 3L16 5L17 5L17 3ZM9 6L9 7L10 7L10 8L9 8L9 9L10 9L10 10L9 10L9 11L8 11L8 12L10 12L10 13L9 13L9 14L8 14L8 13L6 13L6 14L4 14L4 12L3 12L3 13L2 13L2 14L4 14L4 15L6 15L6 16L7 16L7 15L6 15L6 14L8 14L8 16L11 16L11 15L12 15L12 13L11 13L11 7L10 7L10 6ZM2 9L2 10L1 10L1 11L4 11L4 10L3 10L3 9ZM19 12L19 13L20 13L20 12ZM10 13L10 14L9 14L9 15L11 15L11 13ZM17 13L17 14L18 14L18 15L19 15L19 14L18 14L18 13ZM13 14L13 16L12 16L12 17L13 17L13 16L14 16L14 18L15 18L15 16L14 16L14 14ZM17 17L17 20L20 20L20 17ZM22 17L22 19L21 19L21 21L22 21L22 22L23 22L23 17ZM10 18L10 20L12 20L12 18ZM18 18L18 19L19 19L19 18ZM19 21L19 23L20 23L20 21ZM0 0L0 7L7 7L7 0ZM1 1L1 6L6 6L6 1ZM2 2L2 5L5 5L5 2ZM18 0L18 7L25 7L25 0ZM19 1L19 6L24 6L24 1ZM20 2L20 5L23 5L23 2ZM0 18L0 25L7 25L7 18ZM1 19L1 24L6 24L6 19ZM2 20L2 23L5 23L5 20Z" fill="#000000"/></g></g></svg>
