<?xml version="1.0" encoding="UTF-8"?>
<svg xmlns="http://www.w3.org/2000/svg" version="1.1" width="300" height="300" viewBox="0 0 300 300"><rect x="0" y="0" width="300" height="300" fill="#ffffff"/><g transform="scale(10.345)"><g transform="translate(0,0)"><path fill-rule="evenodd" d="M8 0L8 1L9 1L9 4L10 4L10 5L11 5L11 6L10 6L10 8L9 8L9 6L8 6L8 8L9 8L9 9L8 9L8 10L6 10L6 9L7 9L7 8L6 8L6 9L5 9L5 8L3 8L3 9L5 9L5 10L4 10L4 12L2 12L2 11L3 11L3 10L2 10L2 8L0 8L0 9L1 9L1 10L0 10L0 11L1 11L1 13L0 13L0 14L1 14L1 15L0 15L0 21L2 21L2 20L3 20L3 21L4 21L4 19L5 19L5 18L6 18L6 19L8 19L8 22L9 22L9 23L10 23L10 24L8 24L8 26L9 26L9 27L8 27L8 29L14 29L14 28L13 28L13 27L18 27L18 29L19 29L19 27L20 27L20 25L25 25L25 26L24 26L24 28L25 28L25 26L26 26L26 28L27 28L27 27L28 27L28 28L29 28L29 23L28 23L28 25L25 25L25 20L26 20L26 22L28 22L28 20L29 20L29 18L27 18L27 17L28 17L28 16L27 16L27 13L28 13L28 15L29 15L29 13L28 13L28 12L29 12L29 11L27 11L27 9L23 9L23 8L22 8L22 9L23 9L23 10L22 10L22 11L17 11L17 10L20 10L20 9L19 9L19 8L20 8L20 7L21 7L21 5L20 5L20 4L21 4L21 3L20 3L20 1L19 1L19 0L18 0L18 2L19 2L19 3L20 3L20 4L18 4L18 3L16 3L16 2L15 2L15 0L12 0L12 1L14 1L14 2L13 2L13 3L11 3L11 2L10 2L10 1L11 1L11 0ZM16 0L16 1L17 1L17 0ZM14 2L14 3L15 3L15 2ZM10 3L10 4L11 4L11 5L12 5L12 6L11 6L11 7L12 7L12 8L13 8L13 9L12 9L12 11L11 11L11 12L10 12L10 13L9 13L9 14L8 14L8 12L9 12L9 11L10 11L10 10L8 10L8 11L6 11L6 10L5 10L5 12L4 12L4 13L5 13L5 16L4 16L4 18L5 18L5 16L8 16L8 17L6 17L6 18L8 18L8 17L9 17L9 16L10 16L10 15L12 15L12 16L11 16L11 18L12 18L12 16L13 16L13 18L15 18L15 17L16 17L16 19L15 19L15 20L16 20L16 19L17 19L17 20L18 20L18 21L19 21L19 20L20 20L20 19L21 19L21 20L22 20L22 19L21 19L21 18L24 18L24 19L23 19L23 20L24 20L24 19L25 19L25 18L26 18L26 19L27 19L27 18L26 18L26 17L27 17L27 16L26 16L26 15L25 15L25 14L23 14L23 15L24 15L24 17L23 17L23 16L22 16L22 17L21 17L21 18L20 18L20 15L22 15L22 12L21 12L21 13L19 13L19 12L17 12L17 14L16 14L16 15L15 15L15 13L14 13L14 12L16 12L16 11L13 11L13 10L14 10L14 9L16 9L16 10L17 10L17 9L16 9L16 8L18 8L18 6L19 6L19 7L20 7L20 5L18 5L18 4L17 4L17 5L16 5L16 4L14 4L14 6L13 6L13 4L11 4L11 3ZM17 5L17 6L16 6L16 7L17 7L17 6L18 6L18 5ZM12 6L12 7L13 7L13 8L15 8L15 6L14 6L14 7L13 7L13 6ZM28 8L28 9L29 9L29 8ZM1 10L1 11L2 11L2 10ZM23 10L23 11L24 11L24 10ZM25 10L25 12L24 12L24 13L25 13L25 12L26 12L26 13L27 13L27 11L26 11L26 10ZM12 11L12 12L11 12L11 14L12 14L12 15L13 15L13 14L14 14L14 13L13 13L13 11ZM6 12L6 13L7 13L7 12ZM12 13L12 14L13 14L13 13ZM18 13L18 14L17 14L17 15L20 15L20 14L19 14L19 13ZM2 14L2 17L1 17L1 18L2 18L2 19L3 19L3 18L2 18L2 17L3 17L3 15L4 15L4 14ZM6 14L6 15L8 15L8 16L9 16L9 15L10 15L10 14L9 14L9 15L8 15L8 14ZM25 16L25 17L24 17L24 18L25 18L25 17L26 17L26 16ZM18 17L18 18L19 18L19 19L20 19L20 18L19 18L19 17ZM10 19L10 20L9 20L9 22L10 22L10 21L11 21L11 20L13 20L13 21L12 21L12 23L13 23L13 25L12 25L12 24L10 24L10 28L12 28L12 27L13 27L13 26L14 26L14 25L15 25L15 24L14 24L14 23L15 23L15 22L14 22L14 20L13 20L13 19ZM5 20L5 21L7 21L7 20ZM16 21L16 23L17 23L17 21ZM21 21L21 24L24 24L24 21ZM13 22L13 23L14 23L14 22ZM18 22L18 24L17 24L17 25L16 25L16 26L18 26L18 24L20 24L20 23L19 23L19 22ZM22 22L22 23L23 23L23 22ZM11 25L11 26L12 26L12 25ZM20 28L20 29L23 29L23 28ZM0 0L0 7L7 7L7 0ZM1 1L1 6L6 6L6 1ZM2 2L2 5L5 5L5 2ZM22 0L22 7L29 7L29 0ZM23 1L23 6L28 6L28 1ZM24 2L24 5L27 5L27 2ZM0 22L0 29L7 29L7 22ZM1 23L1 28L6 28L6 23ZM2 24L2 27L5 27L5 24Z" fill="#000000"/></g></g></svg>
