<?xml version="1.0" encoding="UTF-8"?>
<svg xmlns="http://www.w3.org/2000/svg" version="1.1" width="200" height="200" viewBox="0 0 200 200"><rect x="0" y="0" width="200" height="200" fill="#ffffff"/><g transform="scale(8)"><g transform="translate(0,0)"><path fill-rule="evenodd" d="M9 0L9 1L11 1L11 2L9 2L9 3L8 3L8 5L9 5L9 6L8 6L8 7L9 7L9 9L10 9L10 10L8 10L8 8L5 8L5 9L3 9L3 10L2 10L2 8L0 8L0 10L2 10L2 12L1 12L1 13L0 13L0 17L1 17L1 14L3 14L3 13L2 13L2 12L4 12L4 15L2 15L2 17L4 17L4 16L5 16L5 17L8 17L8 20L9 20L9 22L10 22L10 23L11 23L11 22L10 22L10 20L11 20L11 21L12 21L12 22L13 22L13 23L12 23L12 24L10 24L10 25L14 25L14 23L16 23L16 25L19 25L19 24L21 24L21 25L22 25L22 24L21 24L21 23L20 23L20 22L19 22L19 21L21 21L21 22L22 22L22 23L23 23L23 22L24 22L24 25L25 25L25 20L21 20L21 19L22 19L22 18L23 18L23 15L24 15L24 16L25 16L25 14L24 14L24 13L25 13L25 10L24 10L24 9L22 9L22 8L20 8L20 9L19 9L19 10L18 10L18 11L17 11L17 10L16 10L16 9L17 9L17 6L16 6L16 8L15 8L15 12L14 12L14 14L15 14L15 15L14 15L14 16L13 16L13 15L12 15L12 17L13 17L13 18L12 18L12 19L9 19L9 18L11 18L11 15L10 15L10 14L11 14L11 12L12 12L12 11L13 11L13 10L11 10L11 8L10 8L10 7L11 7L11 4L12 4L12 5L13 5L13 4L14 4L14 5L15 5L15 4L16 4L16 3L15 3L15 2L14 2L14 0L13 0L13 1L12 1L12 0ZM16 0L16 1L17 1L17 0ZM12 2L12 4L13 4L13 3L14 3L14 2ZM9 3L9 5L10 5L10 3ZM9 6L9 7L10 7L10 6ZM12 6L12 9L14 9L14 8L13 8L13 6ZM14 6L14 7L15 7L15 6ZM6 9L6 10L5 10L5 11L4 11L4 12L5 12L5 13L6 13L6 14L5 14L5 16L7 16L7 15L6 15L6 14L7 14L7 13L6 13L6 12L7 12L7 11L6 11L6 10L7 10L7 9ZM10 10L10 11L9 11L9 12L10 12L10 11L11 11L11 10ZM22 10L22 12L20 12L20 14L19 14L19 13L18 13L18 12L19 12L19 11L18 11L18 12L17 12L17 11L16 11L16 13L17 13L17 15L16 15L16 16L14 16L14 18L13 18L13 19L12 19L12 21L15 21L15 22L16 22L16 21L15 21L15 20L14 20L14 19L16 19L16 16L17 16L17 15L18 15L18 14L19 14L19 15L20 15L20 16L21 16L21 18L22 18L22 15L23 15L23 13L24 13L24 11L23 11L23 10ZM5 11L5 12L6 12L6 11ZM9 13L9 14L8 14L8 15L9 15L9 16L8 16L8 17L9 17L9 16L10 16L10 15L9 15L9 14L10 14L10 13ZM12 13L12 14L13 14L13 13ZM21 14L21 15L22 15L22 14ZM17 17L17 20L20 20L20 17ZM18 18L18 19L19 19L19 18ZM24 18L24 19L25 19L25 18ZM22 21L22 22L23 22L23 21ZM17 22L17 23L18 23L18 24L19 24L19 22ZM8 23L8 25L9 25L9 23ZM0 0L0 7L7 7L7 0ZM1 1L1 6L6 6L6 1ZM2 2L2 5L5 5L5 2ZM18 0L18 7L25 7L25 0ZM19 1L19 6L24 6L24 1ZM20 2L20 5L23 5L23 2ZM0 18L0 25L7 25L7 18ZM1 19L1 24L6 24L6 19ZM2 20L2 23L5 23L5 20Z" fill="#000000"/></g></g></svg>
