<?xml version="1.0" encoding="UTF-8"?>
<svg xmlns="http://www.w3.org/2000/svg" version="1.1" width="200" height="200" viewBox="0 0 200 200"><rect x="0" y="0" width="200" height="200" fill="#ffffff"/><g transform="scale(6.897)"><g transform="translate(0,0)"><path fill-rule="evenodd" d="M12 0L12 1L13 1L13 2L14 2L14 1L15 1L15 3L13 3L13 5L12 5L12 3L8 3L8 4L9 4L9 5L8 5L8 7L9 7L9 8L6 8L6 9L7 9L7 10L6 10L6 11L3 11L3 9L5 9L5 8L0 8L0 10L2 10L2 13L1 13L1 14L0 14L0 16L5 16L5 17L0 17L0 21L1 21L1 18L5 18L5 21L8 21L8 23L10 23L10 22L9 22L9 21L10 21L10 19L9 19L9 18L8 18L8 16L11 16L11 17L10 17L10 18L12 18L12 17L13 17L13 18L14 18L14 20L13 20L13 19L11 19L11 20L12 20L12 21L11 21L11 22L12 22L12 23L11 23L11 26L10 26L10 24L8 24L8 29L10 29L10 28L11 28L11 29L15 29L15 28L17 28L17 29L18 29L18 28L17 28L17 27L16 27L16 26L15 26L15 27L14 27L14 28L11 28L11 26L12 26L12 27L13 27L13 26L14 26L14 25L16 25L16 24L15 24L15 23L16 23L16 22L15 22L15 23L14 23L14 24L12 24L12 23L13 23L13 22L12 22L12 21L15 21L15 19L16 19L16 18L14 18L14 17L16 17L16 16L15 16L15 15L16 15L16 14L17 14L17 13L18 13L18 14L20 14L20 15L19 15L19 17L18 17L18 16L17 16L17 18L20 18L20 19L21 19L21 20L20 20L20 22L19 22L19 21L18 21L18 20L16 20L16 21L18 21L18 23L19 23L19 24L20 24L20 26L22 26L22 27L20 27L20 28L21 28L21 29L24 29L24 28L25 28L25 27L27 27L27 28L26 28L26 29L27 29L27 28L28 28L28 26L29 26L29 25L28 25L28 24L29 24L29 23L27 23L27 22L25 22L25 21L28 21L28 22L29 22L29 19L28 19L28 18L29 18L29 17L28 17L28 16L29 16L29 15L27 15L27 14L29 14L29 12L26 12L26 13L27 13L27 14L26 14L26 15L27 15L27 16L25 16L25 17L22 17L22 16L21 16L21 17L20 17L20 15L21 15L21 14L25 14L25 13L18 13L18 12L19 12L19 10L20 10L20 11L21 11L21 10L22 10L22 11L24 11L24 12L25 12L25 10L26 10L26 8L25 8L25 9L24 9L24 8L23 8L23 9L22 9L22 8L20 8L20 7L21 7L21 6L20 6L20 7L19 7L19 6L18 6L18 8L17 8L17 9L16 9L16 10L15 10L15 12L9 12L9 9L10 9L10 11L11 11L11 10L13 10L13 6L14 6L14 9L15 9L15 6L16 6L16 7L17 7L17 5L21 5L21 4L20 4L20 3L21 3L21 1L20 1L20 0L18 0L18 1L17 1L17 0L16 0L16 1L15 1L15 0L14 0L14 1L13 1L13 0ZM8 1L8 2L9 2L9 1ZM10 1L10 2L11 2L11 1ZM19 1L19 2L20 2L20 1ZM16 2L16 4L14 4L14 5L16 5L16 4L17 4L17 3L18 3L18 2ZM10 4L10 6L9 6L9 7L10 7L10 6L11 6L11 7L12 7L12 5L11 5L11 4ZM10 8L10 9L12 9L12 8ZM19 8L19 9L20 9L20 8ZM27 8L27 10L29 10L29 9L28 9L28 8ZM17 9L17 10L18 10L18 9ZM0 11L0 12L1 12L1 11ZM6 11L6 12L7 12L7 11ZM16 11L16 13L12 13L12 14L11 14L11 13L9 13L9 12L8 12L8 13L9 13L9 15L10 15L10 14L11 14L11 15L12 15L12 16L14 16L14 15L13 15L13 14L16 14L16 13L17 13L17 12L18 12L18 11ZM3 12L3 13L4 13L4 14L5 14L5 16L8 16L8 14L7 14L7 13L6 13L6 14L5 14L5 13L4 13L4 12ZM1 14L1 15L3 15L3 14ZM6 14L6 15L7 15L7 14ZM23 15L23 16L24 16L24 15ZM5 17L5 18L7 18L7 19L6 19L6 20L7 20L7 19L8 19L8 21L9 21L9 19L8 19L8 18L7 18L7 17ZM25 17L25 18L22 18L22 19L23 19L23 20L24 20L24 19L25 19L25 20L28 20L28 19L26 19L26 17ZM2 19L2 20L3 20L3 21L4 21L4 20L3 20L3 19ZM21 21L21 24L24 24L24 21ZM22 22L22 23L23 23L23 22ZM25 23L25 24L27 24L27 23ZM17 24L17 26L18 26L18 27L19 27L19 25L18 25L18 24ZM22 25L22 26L23 26L23 28L24 28L24 26L25 26L25 25ZM26 25L26 26L28 26L28 25ZM9 26L9 28L10 28L10 26ZM0 0L0 7L7 7L7 0ZM1 1L1 6L6 6L6 1ZM2 2L2 5L5 5L5 2ZM22 0L22 7L29 7L29 0ZM23 1L23 6L28 6L28 1ZM24 2L24 5L27 5L27 2ZM0 22L0 29L7 29L7 22ZM1 23L1 28L6 28L6 23ZM2 24L2 27L5 27L5 24Z" fill="#000000"/></g></g></svg>
