<?xml version="1.0" encoding="UTF-8"?>
<svg xmlns="http://www.w3.org/2000/svg" version="1.1" width="200" height="200" viewBox="0 0 200 200"><rect x="0" y="0" width="200" height="200" fill="#ffffff"/><g transform="scale(6.061)"><g transform="translate(0,0)"><path fill-rule="evenodd" d="M10 0L10 2L11 2L11 0ZM12 0L12 1L13 1L13 0ZM16 0L16 1L15 1L15 2L14 2L14 3L13 3L13 2L12 2L12 4L14 4L14 7L15 7L15 6L16 6L16 8L17 8L17 10L15 10L15 11L17 11L17 10L18 10L18 11L19 11L19 10L22 10L22 9L20 9L20 8L22 8L22 7L23 7L23 5L24 5L24 4L25 4L25 2L24 2L24 4L23 4L23 2L22 2L22 1L21 1L21 0L19 0L19 1L17 1L17 0ZM23 0L23 1L24 1L24 0ZM8 1L8 2L9 2L9 1ZM19 1L19 2L15 2L15 3L16 3L16 4L15 4L15 5L16 5L16 6L17 6L17 8L18 8L18 9L19 9L19 8L18 8L18 4L19 4L19 2L20 2L20 1ZM8 3L8 4L9 4L9 5L8 5L8 7L9 7L9 8L6 8L6 9L7 9L7 10L5 10L5 8L0 8L0 10L1 10L1 11L0 11L0 14L4 14L4 15L5 15L5 14L6 14L6 15L7 15L7 14L6 14L6 13L8 13L8 11L7 11L7 10L9 10L9 9L10 9L10 11L11 11L11 9L12 9L12 10L13 10L13 11L12 11L12 13L13 13L13 14L11 14L11 16L6 16L6 17L7 17L7 18L6 18L6 19L7 19L7 20L4 20L4 21L3 21L3 20L1 20L1 21L0 21L0 25L1 25L1 22L3 22L3 23L2 23L2 24L3 24L3 23L4 23L4 24L5 24L5 25L8 25L8 27L9 27L9 28L8 28L8 33L10 33L10 32L11 32L11 33L12 33L12 31L13 31L13 30L11 30L11 31L10 31L10 30L9 30L9 28L10 28L10 29L11 29L11 27L9 27L9 26L11 26L11 25L12 25L12 26L13 26L13 27L12 27L12 29L13 29L13 28L14 28L14 29L16 29L16 30L15 30L15 31L14 31L14 32L15 32L15 33L18 33L18 32L19 32L19 31L18 31L18 32L15 32L15 31L16 31L16 30L17 30L17 29L18 29L18 30L20 30L20 32L22 32L22 33L26 33L26 32L28 32L28 33L29 33L29 32L31 32L31 33L32 33L32 32L31 32L31 31L27 31L27 30L29 30L29 26L30 26L30 28L31 28L31 29L30 29L30 30L33 30L33 27L32 27L32 26L33 26L33 23L31 23L31 21L30 21L30 20L31 20L31 19L32 19L32 20L33 20L33 19L32 19L32 18L33 18L33 16L32 16L32 14L33 14L33 13L32 13L32 12L31 12L31 11L30 11L30 12L28 12L28 11L29 11L29 10L28 10L28 8L27 8L27 9L26 9L26 8L23 8L23 10L24 10L24 9L25 9L25 10L26 10L26 12L27 12L27 13L26 13L26 14L28 14L28 13L30 13L30 12L31 12L31 13L32 13L32 14L31 14L31 15L30 15L30 16L27 16L27 15L26 15L26 16L25 16L25 14L24 14L24 13L25 13L25 12L24 12L24 13L22 13L22 14L24 14L24 15L23 15L23 16L24 16L24 17L23 17L23 18L24 18L24 19L25 19L25 20L22 20L22 19L21 19L21 20L20 20L20 19L19 19L19 18L22 18L22 17L20 17L20 16L22 16L22 15L21 15L21 13L18 13L18 12L13 12L13 11L14 11L14 10L13 10L13 9L14 9L14 8L13 8L13 9L12 9L12 7L13 7L13 5L11 5L11 6L10 6L10 4L11 4L11 3ZM20 3L20 4L21 4L21 5L19 5L19 7L20 7L20 6L21 6L21 7L22 7L22 6L21 6L21 5L23 5L23 4L22 4L22 3ZM16 4L16 5L17 5L17 4ZM9 6L9 7L10 7L10 6ZM11 6L11 7L12 7L12 6ZM24 6L24 7L25 7L25 6ZM10 8L10 9L11 9L11 8ZM29 8L29 9L30 9L30 10L31 10L31 9L32 9L32 10L33 10L33 9L32 9L32 8L31 8L31 9L30 9L30 8ZM1 9L1 10L3 10L3 11L1 11L1 13L2 13L2 12L3 12L3 13L4 13L4 14L5 14L5 13L6 13L6 12L7 12L7 11L5 11L5 10L4 10L4 9ZM4 11L4 12L5 12L5 11ZM20 11L20 12L22 12L22 11ZM9 12L9 13L11 13L11 12ZM15 13L15 14L16 14L16 13ZM8 14L8 15L9 15L9 14ZM13 14L13 15L12 15L12 17L11 17L11 18L10 18L10 21L9 21L9 20L7 20L7 21L4 21L4 23L5 23L5 24L8 24L8 25L11 25L11 23L10 23L10 22L13 22L13 23L12 23L12 25L15 25L15 26L16 26L16 25L17 25L17 27L16 27L16 29L17 29L17 28L18 28L18 29L20 29L20 28L21 28L21 29L24 29L24 30L21 30L21 31L22 31L22 32L26 32L26 30L27 30L27 29L26 29L26 30L25 30L25 29L24 29L24 27L23 27L23 26L24 26L24 24L21 24L21 23L20 23L20 22L19 22L19 21L20 21L20 20L19 20L19 19L17 19L17 18L19 18L19 16L18 16L18 15L20 15L20 14L18 14L18 15L17 15L17 16L16 16L16 17L15 17L15 16L14 16L14 14ZM1 15L1 16L0 16L0 18L1 18L1 19L2 19L2 18L3 18L3 19L5 19L5 17L4 17L4 16L2 16L2 15ZM1 16L1 17L2 17L2 16ZM17 16L17 17L16 17L16 18L14 18L14 17L12 17L12 18L13 18L13 19L12 19L12 21L13 21L13 20L14 20L14 21L16 21L16 22L15 22L15 23L14 23L14 24L17 24L17 25L18 25L18 26L23 26L23 25L20 25L20 24L19 24L19 22L18 22L18 24L17 24L17 23L16 23L16 22L17 22L17 21L18 21L18 20L17 20L17 21L16 21L16 20L14 20L14 19L16 19L16 18L17 18L17 17L18 17L18 16ZM26 16L26 17L25 17L25 18L26 18L26 21L27 21L27 22L25 22L25 24L26 24L26 23L28 23L28 24L29 24L29 25L30 25L30 26L31 26L31 25L32 25L32 24L30 24L30 21L27 21L27 20L28 20L28 19L29 19L29 20L30 20L30 19L29 19L29 17L27 17L27 16ZM30 16L30 17L31 17L31 18L32 18L32 16ZM3 17L3 18L4 18L4 17ZM8 18L8 19L9 19L9 18ZM21 20L21 21L22 21L22 23L24 23L24 22L23 22L23 21L22 21L22 20ZM7 21L7 22L6 22L6 23L7 23L7 22L8 22L8 21ZM32 21L32 22L33 22L33 21ZM8 23L8 24L9 24L9 23ZM18 24L18 25L19 25L19 24ZM25 25L25 28L28 28L28 25ZM26 26L26 27L27 27L27 26ZM14 27L14 28L15 28L15 27ZM19 27L19 28L20 28L20 27ZM21 27L21 28L22 28L22 27ZM24 30L24 31L25 31L25 30ZM0 0L0 7L7 7L7 0ZM1 1L1 6L6 6L6 1ZM2 2L2 5L5 5L5 2ZM26 0L26 7L33 7L33 0ZM27 1L27 6L32 6L32 1ZM28 2L28 5L31 5L31 2ZM0 26L0 33L7 33L7 26ZM1 27L1 32L6 32L6 27ZM2 28L2 31L5 31L5 28Z" fill="#000000"/></g></g></svg>
