<?xml version="1.0" encoding="UTF-8"?>
<svg xmlns="http://www.w3.org/2000/svg" version="1.1" width="200" height="200" viewBox="0 0 200 200"><rect x="0" y="0" width="200" height="200" fill="#ffffff"/><g transform="scale(8)"><g transform="translate(0,0)"><path fill-rule="evenodd" d="M8 0L8 4L9 4L9 5L8 5L8 7L9 7L9 6L10 6L10 9L11 9L11 8L12 8L12 9L13 9L13 10L14 10L14 9L15 9L15 11L16 11L16 10L17 10L17 4L16 4L16 2L15 2L15 1L16 1L16 0L15 0L15 1L14 1L14 2L15 2L15 5L14 5L14 3L13 3L13 1L11 1L11 2L12 2L12 5L14 5L14 9L13 9L13 8L12 8L12 7L13 7L13 6L12 6L12 7L11 7L11 3L10 3L10 2L9 2L9 0ZM15 5L15 9L16 9L16 5ZM0 8L0 9L2 9L2 10L3 10L3 11L5 11L5 12L4 12L4 13L3 13L3 14L2 14L2 15L3 15L3 17L4 17L4 16L5 16L5 14L6 14L6 15L7 15L7 16L6 16L6 17L8 17L8 18L9 18L9 19L8 19L8 21L10 21L10 24L11 24L11 25L13 25L13 21L14 21L14 20L12 20L12 21L11 21L11 19L12 19L12 16L13 16L13 14L14 14L14 13L15 13L15 16L14 16L14 17L13 17L13 18L14 18L14 17L16 17L16 21L17 21L17 25L20 25L20 24L21 24L21 25L25 25L25 24L24 24L24 22L25 22L25 21L23 21L23 20L25 20L25 19L23 19L23 18L24 18L24 17L23 17L23 15L24 15L24 16L25 16L25 15L24 15L24 14L23 14L23 15L22 15L22 14L21 14L21 13L23 13L23 12L24 12L24 13L25 13L25 11L23 11L23 10L24 10L24 9L25 9L25 8L21 8L21 9L20 9L20 8L19 8L19 9L20 9L20 10L22 10L22 12L21 12L21 11L19 11L19 10L18 10L18 12L17 12L17 13L16 13L16 12L14 12L14 13L13 13L13 11L12 11L12 12L11 12L11 13L10 13L10 15L7 15L7 14L6 14L6 13L8 13L8 14L9 14L9 12L10 12L10 11L11 11L11 10L9 10L9 9L7 9L7 8L4 8L4 9L2 9L2 8ZM6 9L6 10L7 10L7 11L6 11L6 12L8 12L8 10L7 10L7 9ZM22 9L22 10L23 10L23 9ZM0 10L0 14L1 14L1 10ZM20 12L20 13L17 13L17 14L18 14L18 15L17 15L17 16L18 16L18 15L19 15L19 16L21 16L21 17L22 17L22 15L20 15L20 13L21 13L21 12ZM11 13L11 14L12 14L12 13ZM3 14L3 15L4 15L4 14ZM0 16L0 17L2 17L2 16ZM8 16L8 17L9 17L9 16ZM10 17L10 18L11 18L11 17ZM17 17L17 20L20 20L20 17ZM18 18L18 19L19 19L19 18ZM9 19L9 20L10 20L10 19ZM21 20L21 21L20 21L20 22L19 22L19 23L18 23L18 24L20 24L20 23L21 23L21 22L22 22L22 23L23 23L23 21L22 21L22 20ZM14 22L14 23L15 23L15 24L14 24L14 25L16 25L16 23L15 23L15 22ZM8 23L8 25L9 25L9 23ZM11 23L11 24L12 24L12 23ZM0 0L0 7L7 7L7 0ZM1 1L1 6L6 6L6 1ZM2 2L2 5L5 5L5 2ZM18 0L18 7L25 7L25 0ZM19 1L19 6L24 6L24 1ZM20 2L20 5L23 5L23 2ZM0 18L0 25L7 25L7 18ZM1 19L1 24L6 24L6 19ZM2 20L2 23L5 23L5 20Z" fill="#000000"/></g></g></svg>
