<?xml version="1.0" encoding="UTF-8"?>
<svg xmlns="http://www.w3.org/2000/svg" version="1.1" width="200" height="200" viewBox="0 0 200 200"><rect x="0" y="0" width="200" height="200" fill="#ffffff"/><g transform="scale(6.897)"><g transform="translate(0,0)"><path fill-rule="evenodd" d="M8 0L8 4L10 4L10 3L11 3L11 4L12 4L12 2L11 2L11 0ZM12 0L12 1L13 1L13 0ZM14 0L14 1L15 1L15 0ZM16 1L16 2L17 2L17 3L16 3L16 4L15 4L15 3L14 3L14 2L13 2L13 3L14 3L14 4L13 4L13 5L11 5L11 6L10 6L10 7L9 7L9 5L8 5L8 7L9 7L9 8L10 8L10 7L11 7L11 6L12 6L12 8L11 8L11 9L8 9L8 10L6 10L6 9L7 9L7 8L4 8L4 9L2 9L2 8L0 8L0 9L2 9L2 10L1 10L1 11L0 11L0 12L2 12L2 14L1 14L1 13L0 13L0 14L1 14L1 15L0 15L0 18L2 18L2 20L0 20L0 21L2 21L2 20L5 20L5 21L8 21L8 22L9 22L9 21L10 21L10 18L9 18L9 19L8 19L8 18L6 18L6 17L8 17L8 16L6 16L6 17L5 17L5 16L3 16L3 18L2 18L2 17L1 17L1 15L2 15L2 14L4 14L4 15L7 15L7 14L6 14L6 13L7 13L7 12L8 12L8 10L11 10L11 11L10 11L10 13L9 13L9 17L10 17L10 13L11 13L11 12L12 12L12 13L13 13L13 14L15 14L15 15L14 15L14 16L13 16L13 15L12 15L12 16L11 16L11 17L12 17L12 18L11 18L11 20L12 20L12 21L13 21L13 22L15 22L15 23L14 23L14 24L13 24L13 23L12 23L12 24L11 24L11 23L8 23L8 25L9 25L9 27L8 27L8 29L11 29L11 28L12 28L12 29L14 29L14 27L15 27L15 28L16 28L16 26L17 26L17 25L18 25L18 26L19 26L19 25L20 25L20 26L21 26L21 27L20 27L20 29L21 29L21 27L22 27L22 28L23 28L23 27L22 27L22 25L25 25L25 24L26 24L26 23L27 23L27 25L26 25L26 27L25 27L25 29L26 29L26 27L27 27L27 29L28 29L28 28L29 28L29 25L28 25L28 24L29 24L29 17L28 17L28 16L29 16L29 13L28 13L28 12L29 12L29 8L25 8L25 9L24 9L24 8L23 8L23 9L22 9L22 10L20 10L20 11L22 11L22 12L20 12L20 13L21 13L21 15L19 15L19 16L20 16L20 19L18 19L18 18L19 18L19 17L18 17L18 15L16 15L16 14L17 14L17 13L18 13L18 11L19 11L19 9L18 9L18 8L20 8L20 9L21 9L21 5L19 5L19 3L20 3L20 4L21 4L21 3L20 3L20 1L18 1L18 2L17 2L17 1ZM9 2L9 3L10 3L10 2ZM18 2L18 3L17 3L17 4L16 4L16 5L15 5L15 7L16 7L16 8L15 8L15 9L13 9L13 8L14 8L14 6L13 6L13 8L12 8L12 9L11 9L11 10L12 10L12 9L13 9L13 10L15 10L15 9L16 9L16 8L17 8L17 7L18 7L18 6L19 6L19 7L20 7L20 6L19 6L19 5L18 5L18 3L19 3L19 2ZM16 6L16 7L17 7L17 6ZM4 9L4 11L3 11L3 13L4 13L4 14L5 14L5 13L4 13L4 11L5 11L5 12L7 12L7 11L6 11L6 10L5 10L5 9ZM17 9L17 10L16 10L16 11L17 11L17 10L18 10L18 9ZM22 10L22 11L23 11L23 12L22 12L22 13L26 13L26 14L23 14L23 15L21 15L21 19L22 19L22 20L23 20L23 19L24 19L24 20L26 20L26 21L25 21L25 22L27 22L27 23L28 23L28 20L27 20L27 19L28 19L28 18L27 18L27 15L28 15L28 14L27 14L27 11L28 11L28 10L25 10L25 11L24 11L24 10ZM12 11L12 12L13 12L13 11ZM14 11L14 13L17 13L17 12L15 12L15 11ZM26 14L26 15L27 15L27 14ZM15 15L15 17L13 17L13 16L12 16L12 17L13 17L13 18L15 18L15 17L17 17L17 18L18 18L18 17L17 17L17 16L16 16L16 15ZM25 16L25 17L22 17L22 18L25 18L25 19L27 19L27 18L25 18L25 17L26 17L26 16ZM4 17L4 18L5 18L5 17ZM6 19L6 20L7 20L7 19ZM12 19L12 20L13 20L13 19ZM14 19L14 21L15 21L15 20L16 20L16 23L15 23L15 25L13 25L13 24L12 24L12 25L11 25L11 24L10 24L10 25L11 25L11 26L10 26L10 28L11 28L11 26L12 26L12 25L13 25L13 26L15 26L15 25L16 25L16 23L17 23L17 19ZM8 20L8 21L9 21L9 20ZM18 20L18 21L19 21L19 22L20 22L20 21L19 21L19 20ZM21 21L21 24L24 24L24 21ZM22 22L22 23L23 23L23 22ZM18 23L18 25L19 25L19 23ZM27 25L27 26L28 26L28 25ZM12 27L12 28L13 28L13 27ZM17 27L17 29L18 29L18 27ZM0 0L0 7L7 7L7 0ZM1 1L1 6L6 6L6 1ZM2 2L2 5L5 5L5 2ZM22 0L22 7L29 7L29 0ZM23 1L23 6L28 6L28 1ZM24 2L24 5L27 5L27 2ZM0 22L0 29L7 29L7 22ZM1 23L1 28L6 28L6 23ZM2 24L2 27L5 27L5 24Z" fill="#000000"/></g></g></svg>
